<?xml version="1.0" encoding="UTF-8"?>
<!DOCTYPE svg PUBLIC "-//W3C//DTD SVG 1.1//EN" "http://www.w3.org/Graphics/SVG/1.1/DTD/svg11.dtd">
<!-- Creator: CorelDRAW X6 -->
<svg xmlns="http://www.w3.org/2000/svg" xml:space="preserve" width="51.0765mm" height="49.5187mm" version="1.1" style="shape-rendering:geometricPrecision; text-rendering:geometricPrecision; image-rendering:optimizeQuality; fill-rule:evenodd; clip-rule:evenodd"
viewBox="0 0 5857 5678"
 xmlns:xlink="http://www.w3.org/1999/xlink">
 <defs>
  <style type="text/css">
   <![CDATA[
    .fil1 {fill:#4CAF50}
    .fil0 {fill:#FCD635}
    .fil3 {fill:#E31E24;fill-rule:nonzero}
    .fil2 {fill:#FEFEFE;fill-rule:nonzero}
   ]]>
  </style>
 </defs>
 <g id="Слой_x0020_1">
  <metadata id="CorelCorpID_0Corel-Layer"/>
  <polygon class="fil0" points="0,0 5857,0 0,5678 "/>
  <polygon class="fil1" points="0,0 3534,0 0,3426 "/>
  <path class="fil2" d="M985 2136l-107 108 -155 -68 -196 198 72 152 -105 106 -305 -680 104 -106 690 290zm-377 -11l-251 -112 117 248 134 -136zm-64 -532l99 -100 211 208c20,-24 29,-45 27,-62 -1,-17 -15,-54 -41,-112 -33,-73 -46,-127 -38,-161 7,-34 34,-73 79,-119 2,-2 7,-7 14,-15l74 73 -14 14c-20,21 -32,38 -37,52 -4,14 -4,30 1,46 5,16 17,46 38,89 11,23 19,44 23,62 5,18 3,42 -5,70 28,-16 59,-22 92,-17 33,4 76,15 128,32l202 66 -116 117 -186 -66c-3,-1 -8,-2 -16,-5 -3,-1 -15,-4 -36,-11 -37,-11 -62,-16 -76,-14 -14,2 -29,11 -46,28l216 213 -99 100 -495 -488zm416 -422l99 -100 411 406 190 -193 -411 -406 99 -100 411 406 41 -41 191 189 -83 84 -108 -106 -346 351 -495 -488zm988 -12l-495 -488 99 -100 495 488 -99 100zm485 -491l-207 -204 -20 20c-31,32 -48,59 -52,81 -4,22 3,72 19,150l37 178 -118 119 -37 -156c-15,-62 -23,-107 -24,-136 -1,-29 2,-61 11,-94 -53,39 -101,56 -146,52 -45,-4 -85,-23 -119,-57 -30,-30 -49,-64 -58,-102 -8,-38 -4,-74 12,-106 17,-33 49,-74 98,-123l208 -210 495 488 -99 100zm-411 -406l-77 78c-39,40 -64,67 -74,81 -10,14 -15,31 -14,50 2,19 11,37 27,53 17,17 36,26 54,28 19,1 36,-3 52,-14 16,-11 44,-37 84,-78l73 -74 -126 -124z"/>
  <path class="fil3" d="M1411 3576l-94 -93 286 -290 94 93 -286 290zm385 -336l123 -159c41,31 80,47 119,46 39,-1 72,-15 99,-43 30,-30 43,-67 40,-110 -3,-43 -24,-84 -63,-122 -37,-36 -76,-55 -117,-57 -41,-2 -75,12 -104,40 -18,19 -37,45 -55,78l-103 -133c40,-38 61,-77 63,-116 2,-39 -12,-73 -42,-103 -26,-25 -54,-38 -84,-38 -30,0 -58,13 -83,38 -25,25 -37,55 -37,90 0,35 15,71 44,108l-156 112c-37,-55 -61,-106 -70,-153 -9,-46 -5,-94 12,-144 18,-49 47,-95 88,-137 71,-72 151,-107 239,-105 73,1 133,26 181,72 67,66 85,156 52,269 53,-34 108,-49 167,-43 58,6 111,32 157,78 67,66 100,147 99,243 -1,96 -37,180 -109,252 -68,69 -144,107 -229,112 -85,6 -163,-19 -234,-75zm269 -1403c73,-74 156,-106 251,-95 111,12 240,90 385,233 145,143 224,271 238,383 11,93 -19,176 -92,250 -73,74 -161,106 -263,95 -102,-11 -227,-89 -374,-234 -144,-142 -223,-270 -237,-382 -11,-93 19,-176 92,-250zm122 120c-17,17 -27,39 -29,63 -2,25 7,55 29,92 28,47 87,115 177,204 90,89 156,145 198,169 42,24 76,35 100,33 25,-2 45,-12 62,-30 17,-17 27,-39 29,-64 2,-25 -8,-55 -30,-92 -28,-47 -87,-115 -176,-204 -90,-89 -156,-145 -198,-169 -42,-24 -76,-35 -100,-33 -25,2 -46,12 -63,30zm578 -84c-47,-46 -71,-91 -73,-134 -2,-43 14,-82 49,-117 36,-36 75,-54 118,-52 43,2 88,26 135,72 47,46 71,91 74,133 2,43 -14,82 -49,117 -36,36 -75,54 -118,52 -43,-2 -88,-25 -135,-72zm77 -78c34,33 60,52 80,55 14,2 27,-2 37,-12 11,-11 15,-23 12,-38 -4,-19 -23,-45 -57,-79 -34,-33 -60,-52 -79,-55 -15,-3 -27,1 -38,12 -10,10 -14,23 -12,37 4,19 23,46 56,79zm527 297l-73 74 -278 -825 72 -73 280 823zm22 -298c-47,-46 -71,-91 -74,-134 -2,-43 14,-82 49,-118 35,-36 75,-53 118,-51 43,2 88,26 135,72 47,47 72,91 74,134 2,43 -14,82 -49,117 -36,36 -75,54 -118,52 -43,-2 -88,-26 -135,-72zm77 -78c34,34 61,52 80,56 15,3 27,-1 38,-12 11,-11 15,-23 12,-37 -4,-19 -23,-46 -57,-80 -34,-34 -61,-53 -80,-56 -15,-3 -27,2 -38,12 -11,11 -14,23 -11,37 4,19 23,46 57,80z"/>
 </g>
</svg>
