<?xml version="1.0" encoding="UTF-8"?>
<!DOCTYPE svg PUBLIC "-//W3C//DTD SVG 1.1//EN" "http://www.w3.org/Graphics/SVG/1.1/DTD/svg11.dtd">
<!-- Creator: CorelDRAW X7 -->
<svg xmlns="http://www.w3.org/2000/svg" xml:space="preserve" width="61.3529mm" height="238.938mm" version="1.1" style="shape-rendering:geometricPrecision; text-rendering:geometricPrecision; image-rendering:optimizeQuality; fill-rule:evenodd; clip-rule:evenodd"
viewBox="0 0 4572 17807"
 xmlns:xlink="http://www.w3.org/1999/xlink">
 <defs>
  <style type="text/css">
   <![CDATA[
    .fil0 {fill:#FEFEFE}
    .fil1 {fill:#FDD835}
   ]]>
  </style>
 </defs>
 <g id="Слой_x0020_1">
  <metadata id="CorelCorpID_0Corel-Layer"/>
  <path class="fil0" d="M1232 13458l0 -445 1416 -170 -1416 -170 0 -443 2327 0 0 276 -1774 0 1774 213 0 250 -1774 213 1774 0 0 276 -2327 0 0 0zm1165 -1400l0 0c-380,0 -675,-50 -887,-149 -212,-100 -317,-238 -317,-416 0,-181 104,-322 311,-420 208,-98 500,-148 874,-148 272,0 495,22 669,65 174,43 309,105 406,186 97,82 145,183 145,304 0,123 -41,225 -125,306 -84,81 -216,146 -397,196 -180,50 -407,75 -679,75l0 1zm2 -338l0 0c234,0 403,-20 506,-61 102,-41 154,-97 154,-168 0,-72 -51,-129 -151,-169 -101,-40 -280,-59 -541,-59 -219,0 -379,21 -480,62 -101,42 -151,98 -151,169 0,68 51,123 154,164 102,42 272,62 509,62l0 0zm-1167 -977l0 0 0 -338 812 0 0 -369 -812 0 0 -338 2327 0 0 338 -942 0 0 369 942 0 0 338 -2327 0zm1165 -1227l0 0c-380,0 -675,-50 -887,-149 -212,-100 -317,-238 -317,-415 0,-182 104,-322 311,-421 208,-98 500,-147 874,-147 272,0 495,21 669,64 174,43 309,105 406,187 97,81 145,182 145,303 0,123 -41,225 -125,306 -84,81 -216,146 -397,196 -180,51 -407,76 -679,76l0 0zm2 -337l0 0c234,0 403,-21 506,-62 102,-41 154,-97 154,-168 0,-72 -51,-129 -151,-168 -101,-40 -280,-60 -541,-60 -219,0 -379,21 -480,62 -101,42 -151,98 -151,169 0,69 51,123 154,165 102,41 272,62 509,62l0 0zm1160 -1980l0 0 0 337 -1755 0 0 264 716 0c294,0 510,7 648,22 138,14 240,49 304,103 64,54 97,140 97,261 0,36 -9,79 -26,126l-472 0 0 -50c0,-46 -21,-78 -64,-97 -43,-19 -121,-28 -236,-28l-1540 0 0 -938 2328 0 0 0zm-2327 -237l0 0 0 -339 2327 0 0 339 -2327 0zm0 -504l0 0 0 -1027 575 0 0 345 1752 0 0 337 -1752 0 0 345 -575 0 0 0zm1229 -1100l0 0 0 -441 500 0 0 441 -500 0zm-332 -925l0 0 0 -180c0,-165 62,-288 186,-368 125,-80 318,-120 581,-120 215,0 379,37 493,110 114,74 171,179 171,316l0 580 -2328 0 0 -920 471 0 0 582 426 0 0 0zm930 0l0 0 0 -172c0,-106 -82,-159 -245,-159 -142,0 -214,53 -214,159l0 172 459 0zm-1827 -846l0 0 0 -562c0,-122 61,-213 185,-274 125,-61 301,-92 530,-92 236,0 420,34 552,100 133,66 199,168 199,304l0 185 861 0 0 339 -2327 0 0 0zm994 -339l0 0 0 -83c0,-66 -24,-112 -72,-138 -48,-27 -110,-40 -186,-40 -73,0 -135,12 -185,35 -51,23 -77,66 -77,130l0 96 520 0 0 0zm-994 -662l0 0 0 -366 959 -152 -959 -149 0 -343 1797 358c145,29 253,55 324,77 72,21 130,54 177,97 46,43 68,102 68,177 0,39 -12,108 -36,204l-481 0c13,-57 20,-98 20,-125 0,-78 -62,-125 -186,-142l-1683 363 0 1zm2327 -2121l0 0 0 380 -599 133c-142,31 -231,55 -267,72 -36,17 -54,41 -54,71l920 0 0 337 -2327 0 0 -337 894 0c-4,-29 -26,-52 -67,-68 -41,-17 -160,-42 -356,-77 -144,-25 -248,-51 -311,-77 -63,-25 -108,-67 -135,-125 -28,-59 -42,-150 -42,-274l491 0 0 17c0,58 24,101 70,129 47,27 122,50 227,68 104,18 182,37 233,58 52,20 93,48 123,84 34,-49 93,-91 176,-127 83,-37 213,-75 388,-116l636 -148 0 0z"/>
  <g id="_674896800">
   <path class="fil1" d="M142 15729c29,14 20,12 63,16l0 126c89,-7 65,-49 95,30 19,51 -16,4 26,54 19,22 32,29 53,42 0,45 -3,78 5,121l43 99c9,10 12,6 30,33 12,17 26,65 49,68l46 -21c6,68 9,61 79,63 17,-63 -15,-2 99,-91 44,-35 80,-35 153,-35 21,-40 29,-61 57,-102 38,-55 48,-35 54,-103 124,-3 34,-33 194,-106 87,-40 100,-1 168,-131l111 16c-10,-18 -15,-32 -28,-53l-47 -108c-17,-57 -27,-135 -79,-190 -69,-74 -97,-101 -36,-216 -180,-96 -126,-118 -126,-253 0,-19 -34,-38 -46,-48l-107 5c-42,17 2,5 -52,12 -93,11 -98,13 -142,79 -161,-78 -201,68 -226,88 -46,37 -33,-1 -73,54 -202,-135 -308,108 -314,112 -47,41 -90,-25 -137,83 -19,41 6,8 -20,43 -2,3 -6,6 -8,8 -2,2 -6,6 -8,8l-18 13c108,29 142,144 142,284l0 0 0 0z"/>
   <path class="fil0" d="M1277 17179c-5,-60 -1,-53 -58,-67 -27,-7 -68,-11 -115,-11 -17,-73 -12,-46 -54,-88 -121,-123 -69,-162 -198,-196l0 -126c-68,-6 -75,-26 -142,-32 12,-47 -1,-34 47,-47l0 -32c-43,-16 -19,2 -24,-35 -4,-27 18,11 -8,-44 53,5 96,66 111,-110l142 0c194,-290 180,-174 261,-228 48,-32 -6,-20 64,-62 127,-76 195,-21 195,-167l16 47 47 0c9,-81 -18,-28 32,-47 -5,215 10,45 119,211 60,90 73,34 106,84 8,13 21,122 27,146 105,0 111,-13 111,94l63 32c-51,70 -48,-5 -48,126 -155,37 -88,26 -157,80 -9,7 -37,23 -48,31 11,128 31,67 -76,129 -274,160 -111,159 -230,226 -188,105 9,40 -120,118l-63 -32 0 0z"/>
   <path class="fil0" d="M1874 17608l0 0c-44,-23 -182,-142 -253,-157 -128,-28 -14,17 -139,-67 25,-92 55,-12 0,-94 38,-14 22,-6 43,-36 140,-200 57,-60 144,-156l77 -80c141,-123 12,-53 98,-123 69,-57 57,-4 111,-110l25 -39c2,-2 6,-5 8,-7 47,-37 55,6 62,-80l48 32c17,-47 11,-42 79,-47 25,107 34,51 86,102 36,35 13,58 65,109 127,125 154,108 211,135 -3,159 -95,145 -128,172 0,0 -68,86 -70,88 -49,83 -56,148 -98,201l-177 217c-59,-5 -134,-40 -192,-60l0 0z"/>
   <path class="fil0" d="M1801 16041l0 0c0,-164 -56,-211 -111,-316l35 -21c140,-51 53,-36 139,-89 40,-24 59,-33 95,-63 120,-98 -64,-10 184,-131 72,-35 42,-35 81,-76 52,-53 65,-19 111,-70l11 -13c15,-13 28,-18 38,-25 26,97 82,56 183,337l58 149c49,144 10,61 -31,77 -50,19 -95,128 -120,173 -28,52 -150,130 -160,139 -58,51 -52,108 -174,174 -167,89 -134,-21 -134,-88 -24,-15 -32,-18 -50,-44 -18,-26 -8,-18 -17,-31 -14,-22 1,-6 -21,-26 -29,-26 -77,-47 -117,-56l0 0z"/>
   <path class="fil0" d="M3785 16375l0 0c43,-81 65,-204 92,-286l29 -66c25,-39 0,-2 21,-26 -1,40 -20,164 -31,190 -39,92 -48,48 -48,188 72,-26 -13,-11 67,-43 144,-56 50,-58 154,-67l0 -63 10 8 22 -185c4,-150 26,-27 47,-280 -103,9 -43,0 -174,63 0,77 8,81 -31,126 9,-117 65,-133 -79,-142 -48,-4 -76,-15 -111,-31 -15,64 -20,89 -47,142 -29,56 -30,75 -47,142 -8,32 -29,116 -42,147 -20,45 -69,82 -69,136 0,67 33,30 94,32 54,1 64,16 143,16l0 -1z"/>
   <path class="fil0" d="M4111 16233l3 3c28,-115 23,-42 144,-200l29 -467c-4,4 -15,19 -38,55l-21 28c-30,34 -34,23 -50,43 -13,16 -6,6 -9,21 -12,49 6,130 -21,203 -15,41 -24,65 -29,102l-8 212 0 0z"/>
   <path class="fil0" d="M4299 15800c2,-2 4,-5 6,-8 0,41 -4,59 -8,76l-2 118c76,-108 -25,-93 105,-162 1,-66 15,-85 16,-164l-13 -299c-3,5 -6,10 -9,15 -30,44 -11,13 -32,63 -13,30 -20,38 -30,65 -15,40 -2,45 -24,68 -1,2 -3,4 -4,5l-5 223 0 0z"/>
   <path class="fil0" d="M4510 15391c39,-246 38,-285 47,-514 3,-71 21,-60 14,-121 -5,-41 -13,-61 -13,-130 -59,19 -3,-11 -38,183 -5,29 -20,85 -19,101 2,33 20,32 25,94 -42,11 -13,-1 -47,16 23,48 19,58 -1,114l32 257 0 0z"/>
   <path class="fil0" d="M4432 15524l0 0 15 0 0 95c-8,-6 -14,-11 -19,-14l3 42c26,-5 11,1 32,-28 0,-101 21,-124 37,-180l-29 -283c-4,13 -9,28 -15,46 0,1 -11,27 -14,33 -23,74 9,49 -30,112l14 219c3,-9 6,-22 6,-42l0 0z"/>
   <path class="fil0" d="M2341 17527c-17,-113 43,-122 100,-178 54,-53 28,-19 54,-87 13,-34 30,-68 77,-60l5 -5 -6 -49c52,-38 17,-17 47,-79 91,2 37,5 108,34l192 61c67,24 24,16 94,0 11,18 18,32 32,47l-130 232c-64,82 -20,57 -50,124 -17,36 -27,20 -74,68 -38,38 12,45 -40,22 -1,2 -3,4 -4,6 10,62 0,20 -2,100 -5,0 -148,48 -201,44 -40,-3 3,-10 -66,-11 -43,-1 -62,13 -149,-11 -50,-14 -86,-27 -136,-38 -5,-68 2,-29 -31,-77l63 -18 0 -94 111 -21 6 -10 0 0z"/>
   <path class="fil0" d="M3107 16107l0 0c-10,-37 -21,-50 -45,-81l-192 -171c28,-119 -5,-96 89,-163l204 -237c97,-100 54,-117 149,-167 3,26 -4,6 4,27 2,3 3,8 5,11 22,40 55,53 101,57 7,82 21,22 35,124 17,131 -27,109 -76,181 -111,163 -112,234 -169,351 -28,57 -2,14 -29,36 -31,25 -56,24 -76,33l0 -1z"/>
   <path class="fil0" d="M3406 16328l0 0c-34,0 -61,-37 -126,-79 -99,-63 -77,-42 -79,-110 60,-16 28,0 105,-132 46,-78 -11,-49 58,-178 24,-44 64,-107 95,-143 90,-105 -28,-96 105,-99 2,77 -17,45 73,101l85 73c-18,34 -22,36 -31,79 -7,33 -7,58 -23,87 -30,54 -55,50 -76,129 -22,83 -13,86 -64,157 -55,77 -4,115 -122,115l0 0z"/>
   <path class="fil0" d="M3390 16785c-22,-75 5,-119 32,-173 69,-137 46,-148 230,-119 75,12 53,-45 117,9l-100 293c-21,63 -33,97 -57,148 -57,124 -65,31 -48,110 -62,-29 -97,22 -161,29 -76,10 -42,-15 -90,-8 -25,4 -152,128 -4,-181l30 -65c10,-19 16,-33 19,-43 2,-6 2,-6 9,-6 6,0 12,5 23,6l0 0z"/>
   <path class="fil0" d="M2634 16864l0 0c22,-56 -11,-12 63,-47 0,-144 4,-83 94,-126 11,-23 12,-38 22,-58 25,-52 54,-44 120,-163 48,-85 -11,-16 102,-183 18,-27 23,-28 40,-54l-155 -113c-68,-68 -8,-144 -129,-154l0 -48c-40,19 -35,6 -49,11 -87,27 -123,146 -124,147 -102,49 -35,-4 -104,85 -56,73 -48,12 -107,98 -7,11 -12,17 -19,29 -16,24 -5,1 -18,29 -40,87 -33,158 -131,137 28,119 115,215 219,271 120,63 66,130 176,139l0 0z"/>
   <path class="fil0" d="M2933 16673c-81,5 6,-12 -43,6 -65,23 -59,76 -70,103l-92 129c25,14 54,30 86,41 71,25 133,40 187,81 35,28 53,32 90,52 3,-3 4,-6 10,-7 4,-1 7,-6 9,-7 56,-58 -21,49 14,-14 19,-32 11,7 -2,-51 78,36 45,-14 142,-173 22,-36 30,-41 64,-63 0,-141 52,-166 81,-250 45,-132 -62,-91 -63,-91 -48,-8 -35,-30 -73,-46 -53,-22 -34,12 -85,-26 -2,-2 -21,-27 -24,-33 -1,-1 -2,-6 -3,-7l-7 -20c-70,37 -5,25 -57,40 -29,8 -9,-24 -38,21l-126 270c-27,23 -9,-6 0,46l0 -1z"/>
  </g>
  <path class="fil0" d="M1214 410l0 -175 67 0 0 58 204 0 0 58 -204 0 0 58 -67 0 0 1zm0 -201l0 0 0 -76 165 -28 -165 -29 0 -76 271 0 0 47 -206 0 206 36 0 43 -206 36 206 0 0 47 -271 0z"/>
 </g>
</svg>
