<?xml version="1.0" encoding="UTF-8"?>
<!DOCTYPE svg PUBLIC "-//W3C//DTD SVG 1.1//EN" "http://www.w3.org/Graphics/SVG/1.1/DTD/svg11.dtd">
<!-- Creator: CorelDRAW X7 -->
<svg xmlns="http://www.w3.org/2000/svg" xml:space="preserve" width="8.3262mm" height="168.325mm" version="1.1" style="shape-rendering:geometricPrecision; text-rendering:geometricPrecision; image-rendering:optimizeQuality; fill-rule:evenodd; clip-rule:evenodd"
viewBox="0 0 833 16833"
 xmlns:xlink="http://www.w3.org/1999/xlink">
 <defs>
  <style type="text/css">
   <![CDATA[
    .fil0 {fill:#FEFEFE;fill-rule:nonzero}
   ]]>
  </style>
 </defs>
 <g id="Слой_x0020_1">
  <metadata id="CorelCorpID_0Corel-Layer"/>
  <path class="fil0" d="M45 16833l0 -248c0,-45 0,-90 0,-113 0,-22 23,-45 23,-67 22,-23 22,-45 45,-45 22,-23 45,-23 67,-23 23,0 45,0 68,23 22,22 45,45 45,67 0,-45 22,-67 45,-90 22,-22 67,-22 90,-22 22,0 45,0 90,22 22,23 45,23 67,45 23,23 23,45 23,90 0,23 0,68 0,158l0 202 -608 0 45 1zm90 -113l135 0 0 -90c0,-45 0,-68 0,-90 0,-23 0,-45 -22,-45 -23,-23 -23,-23 -45,-23 -23,0 -45,0 -45,23 -23,0 -23,22 -23,45 0,22 0,45 0,112l0 68 0 0zm248 0l157 0 0 -113c0,-45 0,-67 0,-90 0,-22 -22,-22 -22,-45 -23,-22 -23,-22 -45,-22 -23,0 -23,0 -45,22 -23,0 -23,23 -23,45 0,23 0,45 0,113l0 90 -22 0zm-338 -495l0 -113 405 0 -405 -247 0 -113 608 0 0 113 -405 0 405 247 0 113 -608 0zm608 -608l-608 0 0 -202c0,-68 0,-113 0,-135 0,-45 23,-68 68,-90 22,-23 67,-45 112,-45 45,0 68,0 90,22 23,23 45,23 68,45 22,23 22,45 22,68 0,22 0,67 0,135l0 90 225 0 0 112 23 0zm-495 -112l180 0 0 -68c0,-45 0,-90 0,-90 0,-22 -23,-22 -23,-45 -22,0 -22,-22 -45,-22 -22,0 -45,0 -45,22 -22,23 -22,23 -22,45 0,23 0,45 0,90l0 68 -45 0zm202 -405c-67,0 -112,0 -157,-23 -23,-22 -68,-22 -90,-67 -23,-23 -45,-45 -45,-68 -23,-45 -23,-90 -23,-135 0,-90 23,-157 90,-225 45,-45 135,-90 225,-90 90,0 180,23 225,90 45,45 90,135 90,203 0,90 -22,157 -90,225 -45,45 -135,90 -225,90zm0 -135c68,0 113,-23 158,-45 45,-23 45,-68 45,-113 0,-45 -23,-90 -45,-112 -45,-23 -90,-45 -158,-45 -67,0 -112,22 -157,45 -45,22 -45,67 -45,112 0,45 22,90 45,113 45,22 90,45 157,45zm-292 -563l0 -450 112 0 0 338 135 0 0 -158c0,-45 0,-90 23,-112 0,-23 22,-45 67,-68 23,-22 68,-22 113,-22 45,0 67,0 112,22 23,23 45,45 68,68 0,22 22,67 22,112l0 293 -607 0 -45 -23zm495 -112l0 -113c0,-45 0,-67 0,-90 0,-22 -23,-22 -23,-45 -22,-22 -22,-22 -45,-22 -22,0 -45,0 -67,22 -23,23 -23,45 -23,113l0 135 158 0zm-495 -495l0 -113 405 0 -405 -248 0 -112 607 0 0 112 -405 0 405 248 0 113 -607 0zm157 -923l-22 112c-90,-22 -158,-90 -158,-225 0,-67 23,-135 45,-157 23,-45 68,-45 113,-45 22,0 45,0 67,22 23,23 45,45 68,68 22,-45 22,-68 67,-90 23,-23 68,-23 90,-23 45,0 90,23 135,68 23,45 45,90 45,180 0,67 0,112 -22,157 -23,45 -68,68 -113,90l-45 -112c45,-23 68,-23 68,-45 0,-23 22,-45 22,-68 0,-45 0,-67 -22,-90 -23,-22 -45,-22 -68,-22 -22,0 -45,0 -67,22 -23,23 -23,45 -23,90l0 23 -90 0 0 -23c0,-45 0,-67 -22,-90 -23,-22 -45,-22 -68,-22 -22,0 -45,0 -45,22 -22,23 -22,45 -22,68 0,45 22,90 67,90l0 0zm-157 -675l0 -450 112 0 0 337 135 0 0 -157c0,-45 0,-90 23,-113 0,-22 22,-45 67,-67 23,-23 68,-23 113,-23 45,0 67,0 112,23 23,22 45,45 68,67 0,23 22,68 22,113l0 292 -607 0 -45 -22zm495 -113l0 -112c0,-45 0,-68 0,-90 0,-23 -23,-23 -23,-45 -22,-23 -22,-23 -45,-23 -22,0 -45,0 -67,23 -23,22 -23,45 -23,112l0 135 158 0zm112 -472l-607 0 0 -450 112 0 0 315 135 0 0 -293 113 0 0 293 157 0 0 -338 113 0 0 450 -23 23zm0 -698l-495 0 0 180 -112 0 0 -472 112 0 0 180 495 0 0 112 0 0zm-292 -337c-68,0 -113,0 -158,-23 -22,-22 -67,-22 -90,-67 -22,-23 -45,-45 -45,-68 -22,-45 -22,-90 -22,-135 0,-90 22,-157 90,-225 45,-45 135,-90 225,-90 90,0 180,22 225,90 45,45 90,135 90,203 0,90 -23,157 -90,225 -45,45 -135,90 -225,90zm0 -135c67,0 112,-23 157,-45 45,-23 45,-68 45,-113 0,-45 -22,-90 -45,-112 -45,-23 -90,-46 -157,-46 -68,0 -113,23 -158,46 -45,22 -45,67 -45,112 0,45 23,90 45,113 45,22 90,45 158,45zm292 -563l-607 0 0 -113 247 0 0 -247 -247 0 0 -113 607 0 0 113 -270 0 0 247 270 0 0 113zm-607 -540l0 -135 315 -135 -315 -113 0 -135 450 203c45,22 90,45 112,67 23,23 45,45 45,90 0,45 0,68 0,90l-90 0c0,-22 0,-22 0,-45 0,-22 0,-45 -22,-67 0,-23 -23,-23 -68,-45l-427 225 0 0zm0 -878l0 -427 495 0 0 -45 225 0 0 112 -135 0 0 383 135 0 0 112 -225 0 0 -45c-45,-22 -113,-45 -180,-45 -68,0 -158,-22 -270,-22l-68 0 23 -23zm112 -112c180,0 315,22 405,45l0 -225 -405 0 0 180 0 0zm-112 -473l0 -427 607 0 0 112 -495 0 0 180 270 0c68,0 135,0 158,0 22,0 45,23 67,45 23,23 23,45 23,90 0,23 0,45 0,68l-90 0 0 -23c0,-22 0,-45 0,-45 0,0 -23,-22 -45,-22l-113 0 -337 0 -45 22zm607 -922l-247 0 0 22c0,45 0,68 22,90 23,23 45,45 113,90l135 90 0 158 -113 -68c-45,-22 -90,-45 -90,-67 -22,-23 -45,-45 -45,-68 0,68 -22,90 -67,113 -23,22 -68,45 -113,45 -45,0 -67,0 -90,-23 -22,-22 -45,-45 -67,-67 0,-23 -23,-68 -23,-135l0 -248 608 0 0 113 -23 -45zm-495 0l0 90c0,45 0,90 0,90 0,22 0,22 23,45 22,0 22,22 45,22 22,0 45,0 45,-22 22,0 22,-23 22,-45 0,-23 0,-45 0,-90l0 -90 -157 0 22 0zm-112 -473l0 -248c0,-45 0,-90 0,-112 0,-23 22,-45 22,-68 23,-22 23,-45 45,-45 23,-22 45,-22 68,-22 22,0 45,0 67,22 23,23 45,45 45,68 0,-45 23,-68 45,-90 23,-23 68,-23 90,-23 23,0 45,0 90,23 23,22 45,22 68,45 22,22 22,45 22,90 0,22 0,67 0,157l0 203 -607 0 45 0zm90 -113l135 0 0 -90c0,-45 0,-67 0,-90 0,-22 0,-45 -23,-45 -22,-22 -22,-22 -45,-22 -22,0 -45,0 -45,22 -22,0 -22,23 -22,45 0,23 0,45 0,113l0 67 0 0zm247 0l158 0 0 -112c0,-45 0,-68 0,-90 0,-23 -23,-23 -23,-45 -22,-23 -22,-23 -45,-23 -22,0 -22,0 -45,23 -22,0 -22,22 -22,45 0,22 0,45 0,112l0 90 -23 0zm270 -990l0 135 -135 45 0 248 135 45 0 135 -607 -225 0 -135 607 -248 0 0zm-247 225l-225 90 225 90 0 -157 0 -23zm-360 -292l0 -113 495 0 0 -180 -495 0 0 -112 495 0 0 -180 -495 0 0 -113 607 0 0 720 -607 0 0 -22zm315 -833c-68,0 -113,0 -158,-22 -22,-23 -67,-23 -90,-68 -22,-22 -45,-45 -45,-67 -22,-45 -22,-90 -22,-135 0,-90 22,-158 90,-225 45,-45 135,-90 225,-90 90,0 180,22 225,90 45,45 90,135 90,202 0,90 -23,158 -90,225 -45,45 -135,90 -225,90zm0 -135c67,0 112,-22 157,-45 45,-22 45,-67 45,-112 0,-45 -22,-90 -45,-113 -45,-22 -90,-45 -157,-45 -68,0 -113,23 -158,45 -45,23 -45,68 -45,113 0,45 23,90 45,112 45,23 90,45 158,45zm-293 -562l0 -405 113 0 0 292 495 0 0 113 -608 0zm315 -428c-67,0 -112,0 -157,-22 -23,-23 -68,-23 -90,-68 -23,-23 -45,-45 -45,-68 -23,-45 -23,-90 -23,-135 0,-90 23,-157 90,-225 45,-45 135,-90 225,-90 90,0 180,23 225,90 45,45 90,135 90,203 0,90 -22,157 -90,225 -45,45 -135,90 -225,90zm0 -135c68,0 113,-23 158,-45 45,-23 45,-68 45,-113 0,-45 -23,-90 -45,-112 -45,-23 -90,-45 -158,-45 -67,0 -112,22 -157,45 -45,22 -45,67 -45,112 0,45 22,90 45,113 45,22 90,45 157,45zm-292 -833l0 -427 495 0 0 -45 225 0 0 112 -135 0 0 383 135 0 0 112 -225 0 0 -45c-45,-22 -113,-45 -180,-45 -68,0 -158,-22 -270,-22l-68 0 23 -23zm112 -112c180,0 315,22 405,45l0 -225 -405 0 0 180 0 0zm203 -405c-68,0 -113,0 -158,-23 -22,-22 -67,-22 -90,-67 -22,-23 -45,-45 -45,-68 -22,-45 -22,-90 -22,-135 0,-90 22,-157 90,-225 45,-45 135,-90 225,-90 90,0 180,23 225,90 45,45 90,135 90,203 0,90 -23,157 -90,225 -45,45 -135,90 -225,90zm0 -135c67,0 112,-23 157,-45 45,-23 45,-68 45,-113 0,-45 -22,-90 -45,-112 -45,-23 -90,-45 -157,-45 -68,0 -113,22 -158,45 -45,22 -45,67 -45,112 0,45 23,90 45,113 45,22 90,45 158,45zm292 -563l-607 0 0 -180 405 -112 -405 -113 0 -180 607 0 0 113 -472 0 472 112 0 113 -472 112 472 0 0 113 0 22zm-607 -652l0 -135 315 -135 -315 -113 0 -135 450 203c45,22 90,45 112,67 23,23 45,45 45,90 0,45 0,68 0,90l-90 0c0,-22 0,-22 0,-45 0,-22 0,-45 -22,-67 0,-23 -23,-23 -68,-45l-427 225 0 0z"/>
 </g>
</svg>
