<?xml version="1.0" encoding="UTF-8"?>
<!DOCTYPE svg PUBLIC "-//W3C//DTD SVG 1.1//EN" "http://www.w3.org/Graphics/SVG/1.1/DTD/svg11.dtd">
<!-- Creator: CorelDRAW X6 -->
<svg xmlns="http://www.w3.org/2000/svg" xml:space="preserve" width="52.7357mm" height="19.0975mm" version="1.1" style="shape-rendering:geometricPrecision; text-rendering:geometricPrecision; image-rendering:optimizeQuality; fill-rule:evenodd; clip-rule:evenodd"
viewBox="0 0 1510 547"
 xmlns:xlink="http://www.w3.org/1999/xlink">
 <defs>
  <style type="text/css">
   <![CDATA[
    .fil0 {fill:#1F4094;fill-rule:nonzero}
   ]]>
  </style>
 </defs>
 <g id="Слой_x0020_1">
  <metadata id="CorelCorpID_0Corel-Layer"/>
  <path class="fil0" d="M63 212l0 -176 -63 0 0 -36 168 0 0 36 -62 0 0 176 -43 0zm120 -154l38 0 0 23c5,-8 12,-14 20,-19 8,-5 18,-7 28,-7 18,0 33,7 45,21 12,14 19,34 19,58 0,26 -6,46 -19,60 -13,14 -28,21 -46,21 -8,0 -16,-2 -23,-5 -7,-3 -14,-9 -22,-17l0 77 -41 0 0 -212zm40 74c0,17 3,30 10,38 7,8 15,12 25,12 9,0 17,-4 24,-11 6,-8 9,-20 9,-37 0,-16 -3,-28 -10,-36 -6,-8 -14,-12 -24,-12 -10,0 -18,4 -25,12 -7,8 -10,19 -10,34zm133 0c0,-14 3,-27 10,-39 7,-13 16,-22 28,-29 12,-7 26,-10 41,-10 23,0 42,8 57,23 15,15 22,34 22,57 0,23 -7,43 -22,58 -15,15 -34,23 -57,23 -14,0 -27,-3 -40,-10 -13,-6 -22,-16 -29,-28 -7,-12 -10,-27 -10,-45zm42 2c0,15 4,27 11,35 7,8 16,12 27,12 11,0 19,-4 27,-12 7,-8 11,-20 11,-35 0,-15 -4,-27 -11,-35 -7,-8 -16,-12 -27,-12 -11,0 -19,4 -27,12 -7,8 -11,20 -11,35zm123 -77l139 0 0 33 -49 0 0 121 -41 0 0 -121 -49 0 0 -33zm151 0l43 0 37 109 36 -109 42 0 -54 148 -10 27c-4,9 -7,16 -10,20 -3,5 -7,9 -11,11 -4,3 -9,5 -16,7 -6,2 -13,2 -21,2 -8,0 -15,-1 -23,-2l-4 -32c6,1 12,2 17,2 9,0 16,-3 21,-8 5,-6 8,-13 10,-21l-59 -154zm211 47l-37 -7c4,-15 11,-26 21,-33 10,-7 25,-11 45,-11 18,0 32,2 41,6 9,4 15,10 19,16 4,7 5,19 5,36l-1 47c0,13 1,23 2,30 1,6 4,13 7,21l-40 0c-1,-3 -2,-7 -4,-12 -1,-2 -1,-4 -1,-5 -7,7 -14,12 -22,15 -8,3 -16,5 -25,5 -16,0 -28,-4 -37,-13 -9,-9 -14,-19 -14,-33 0,-9 2,-16 6,-23 4,-7 10,-12 17,-16 7,-4 18,-7 32,-9 19,-4 32,-7 39,-10l0 -4c0,-8 -2,-14 -6,-17 -4,-3 -11,-5 -22,-5 -7,0 -13,1 -17,4 -4,3 -7,8 -10,15zm54 33c-5,2 -13,4 -25,6 -11,2 -19,5 -22,7 -5,4 -8,9 -8,14 0,6 2,11 6,15 4,4 10,6 16,6 7,0 14,-2 21,-7 5,-4 8,-8 10,-13 1,-3 2,-10 2,-20l0 -8zm79 -80l38 0 0 23c5,-8 12,-14 20,-19 8,-5 18,-7 28,-7 18,0 33,7 45,21 12,14 19,34 19,58 0,26 -6,46 -19,60 -13,14 -28,21 -46,21 -8,0 -16,-2 -23,-5 -7,-3 -14,-9 -22,-17l0 77 -41 0 0 -212zm40 74c0,17 3,30 10,38 7,8 15,12 25,12 9,0 17,-4 24,-11 6,-8 9,-20 9,-37 0,-16 -3,-28 -10,-36 -6,-8 -14,-12 -24,-12 -10,0 -18,4 -25,12 -7,8 -10,19 -10,34zm140 -74l41 0 0 56 59 0 0 -56 41 0 0 154 -41 0 0 -65 -59 0 0 65 -41 0 0 -154zm211 47l-37 -7c4,-15 11,-26 21,-33 10,-7 25,-11 45,-11 18,0 32,2 41,6 9,4 15,10 19,16 4,7 5,19 5,36l-1 47c0,13 1,23 2,30 1,6 4,13 7,21l-40 0c-1,-3 -2,-7 -4,-12 -1,-2 -1,-4 -1,-5 -7,7 -14,12 -22,15 -8,3 -16,5 -25,5 -16,0 -28,-4 -37,-13 -9,-9 -14,-19 -14,-33 0,-9 2,-16 6,-23 4,-7 10,-12 17,-16 7,-4 18,-7 32,-9 19,-4 32,-7 39,-10l0 -4c0,-8 -2,-14 -6,-17 -4,-3 -11,-5 -22,-5 -7,0 -13,1 -17,4 -4,3 -7,8 -10,15zm54 33c-5,2 -13,4 -25,6 -11,2 -19,5 -22,7 -5,4 -8,9 -8,14 0,6 2,11 6,15 4,4 10,6 16,6 7,0 14,-2 21,-7 5,-4 8,-8 10,-13 1,-3 2,-10 2,-20l0 -8zm-1188 251l137 0 0 154 -41 0 0 -121 -55 0 0 121 -41 0 0 -154zm192 0l136 0 0 154 -41 0 0 -121 -55 0 0 69c0,18 -2,30 -6,37 -4,7 -9,12 -14,14 -5,2 -13,3 -24,3 -6,0 -15,-1 -26,-3l0 -30c1,0 3,0 7,0 4,0 8,0 10,0 6,0 9,-2 10,-5 1,-4 2,-14 2,-30l0 -89zm176 0l39 0 0 97 62 -97 40 0 0 154 -39 0 0 -98 -63 98 -39 0 0 -154zm165 0l139 0 0 33 -49 0 0 121 -41 0 0 -121 -49 0 0 -33zm162 0l41 0 0 63c7,-1 12,-3 14,-6 3,-3 6,-11 10,-22 5,-15 11,-25 17,-29 6,-4 14,-6 24,-6 3,0 8,0 16,1l0 27c-11,0 -18,1 -21,3 -3,2 -6,8 -10,19 -5,14 -12,23 -20,26 13,4 24,15 33,34 0,1 1,2 2,3l23 42 -44 0 -20 -45c-4,-9 -8,-15 -11,-17 -3,-3 -8,-4 -14,-4l0 66 -41 0 0 -154zm180 47l-37 -7c4,-15 11,-26 21,-33 10,-7 25,-11 45,-11 18,0 32,2 41,6 9,4 15,10 19,16 4,7 5,19 5,36l-1 47c0,13 1,23 2,30 1,6 4,13 7,21l-40 0c-1,-3 -2,-7 -4,-12 -1,-2 -1,-4 -1,-5 -7,7 -14,12 -22,15 -8,3 -16,5 -25,5 -16,0 -28,-4 -37,-13 -9,-9 -14,-19 -14,-33 0,-9 2,-16 6,-23 4,-7 10,-12 17,-16 7,-4 18,-7 32,-9 19,-4 32,-7 39,-10l0 -4c0,-8 -2,-14 -6,-17 -4,-3 -11,-5 -22,-5 -7,0 -13,1 -17,4 -4,3 -7,8 -10,15zm54 33c-5,2 -13,4 -25,6 -11,2 -19,5 -22,7 -5,4 -8,9 -8,14 0,6 2,11 6,15 4,4 10,6 16,6 7,0 14,-2 21,-7 5,-4 8,-8 10,-13 1,-3 2,-10 2,-20l0 -8z"/>
 </g>
</svg>
