<?xml version="1.0" encoding="UTF-8"?>
<!DOCTYPE svg PUBLIC "-//W3C//DTD SVG 1.1//EN" "http://www.w3.org/Graphics/SVG/1.1/DTD/svg11.dtd">
<!-- Creator: CorelDRAW X6 -->
<svg xmlns="http://www.w3.org/2000/svg" xml:space="preserve" width="64.9112mm" height="20.8643mm" version="1.1" style="shape-rendering:geometricPrecision; text-rendering:geometricPrecision; image-rendering:optimizeQuality; fill-rule:evenodd; clip-rule:evenodd"
viewBox="0 0 2167 697"
 xmlns:xlink="http://www.w3.org/1999/xlink">
 <defs>
  <style type="text/css">
   <![CDATA[
    .fil0 {fill:#1F4094}
    .fil1 {fill:#FCD635}
    .fil2 {fill:#FCD635;fill-rule:nonzero}
   ]]>
  </style>
 </defs>
 <g id="Слой_x0020_1">
  <metadata id="CorelCorpID_0Corel-Layer"/>
  <rect class="fil0" width="2167" height="629"/>
  <rect class="fil1" y="590" width="2167" height="106"/>
  <path class="fil2" d="M495 321l42 13c-6,24 -17,41 -32,53 -15,11 -34,17 -57,17 -29,0 -52,-10 -71,-29 -18,-20 -28,-46 -28,-80 0,-36 9,-64 28,-83 18,-20 43,-30 73,-30 26,0 48,8 64,23 10,9 17,22 22,40l-43 10c-3,-11 -8,-20 -16,-26 -8,-6 -18,-10 -29,-10 -16,0 -29,6 -39,17 -10,11 -15,30 -15,56 0,27 5,47 15,58 10,12 23,17 38,17 12,0 22,-4 30,-11 8,-7 14,-19 18,-35zm78 -77l40 0 0 98 63 -98 41 0 0 156 -40 0 0 -99 -64 99 -40 0 0 -156zm187 0l51 0 38 109 39 -109 51 0 0 156 -35 0 0 -103 -38 103 -35 0 -36 -103 0 103 -35 0 0 -156zm306 -59l41 0 0 79c5,-8 11,-13 18,-17 7,-4 15,-6 24,-6 17,0 30,8 41,24 11,16 16,36 16,58 0,23 -6,42 -18,57 -12,16 -26,23 -42,23 -7,0 -14,-2 -21,-6 -6,-4 -12,-9 -18,-16l0 77 -41 0 0 -77c-6,7 -12,13 -19,16 -7,4 -14,6 -22,6 -17,0 -31,-8 -42,-23 -11,-16 -16,-35 -16,-59 0,-23 6,-43 19,-58 12,-15 26,-23 41,-23 8,0 15,2 22,6 7,4 12,9 18,17l0 -78zm-27 87c-8,0 -14,5 -20,14 -6,9 -9,21 -9,36 0,15 3,27 8,36 5,9 12,14 20,14 8,0 15,-5 20,-14 6,-9 8,-22 8,-37 0,-17 -3,-30 -9,-37 -6,-8 -12,-12 -19,-12zm96 0c-8,0 -15,5 -20,15 -5,10 -8,22 -8,37 0,15 3,26 8,35 6,9 12,13 20,13 8,0 14,-5 20,-15 6,-10 8,-21 8,-35 0,-14 -3,-26 -8,-36 -5,-10 -12,-15 -21,-15zm91 48c0,-14 3,-27 10,-40 7,-13 16,-23 29,-29 12,-7 26,-10 41,-10 24,0 43,8 58,23 15,15 23,35 23,58 0,24 -8,43 -23,59 -15,16 -34,23 -57,23 -14,0 -28,-3 -41,-10 -13,-6 -23,-16 -30,-28 -7,-12 -10,-28 -10,-46zm42 2c0,15 4,27 11,36 7,8 16,12 27,12 11,0 20,-4 27,-12 7,-8 11,-20 11,-36 0,-15 -4,-27 -11,-35 -7,-8 -16,-12 -27,-12 -11,0 -20,4 -27,12 -7,8 -11,20 -11,36zm149 -78l41 0 0 57 59 0 0 -57 41 0 0 156 -41 0 0 -66 -59 0 0 66 -41 0 0 -156zm183 -21l0 -38 41 0 0 38 -41 0zm0 177l0 -156 41 0 0 156 -41 0zm217 -156l0 156 -41 0 0 -65 -4 0c-9,0 -15,1 -20,3 -4,2 -9,7 -14,15l-3 3 -27 44 -48 0 30 -45c8,-13 16,-20 23,-22 -12,-1 -21,-5 -28,-13 -7,-8 -11,-18 -11,-31 0,-10 2,-19 7,-26 5,-7 11,-12 19,-15 8,-3 20,-4 35,-4l81 0zm-41 26l-30 0c-11,0 -19,2 -23,5 -4,3 -7,8 -7,15 0,7 3,12 8,16 5,3 13,5 25,5l27 0 0 -40z"/>
 </g>
</svg>
