<?xml version="1.0" encoding="UTF-8"?>
<!DOCTYPE svg PUBLIC "-//W3C//DTD SVG 1.1//EN" "http://www.w3.org/Graphics/SVG/1.1/DTD/svg11.dtd">
<!-- Creator: CorelDRAW X6 -->
<svg xmlns="http://www.w3.org/2000/svg" xml:space="preserve" width="64.9112mm" height="20.8643mm" version="1.1" style="shape-rendering:geometricPrecision; text-rendering:geometricPrecision; image-rendering:optimizeQuality; fill-rule:evenodd; clip-rule:evenodd"
viewBox="0 0 2167 697"
 xmlns:xlink="http://www.w3.org/1999/xlink">
 <defs>
  <style type="text/css">
   <![CDATA[
    .fil0 {fill:#1F4094}
    .fil1 {fill:#FCD635}
    .fil2 {fill:#FCD635;fill-rule:nonzero}
   ]]>
  </style>
 </defs>
 <g id="Слой_x0020_1">
  <metadata id="CorelCorpID_0Corel-Layer"/>
  <rect class="fil0" width="2167" height="629"/>
  <rect class="fil1" y="590" width="2167" height="106"/>
  <path class="fil2" d="M359 321l42 13c-6,24 -17,41 -32,53 -15,11 -34,17 -57,17 -29,0 -52,-10 -71,-29 -18,-20 -28,-46 -28,-80 0,-36 9,-64 28,-83 18,-20 43,-30 73,-30 26,0 48,8 64,23 10,9 17,22 22,40l-43 10c-3,-11 -8,-20 -16,-26 -8,-6 -18,-10 -29,-10 -16,0 -29,6 -39,17 -10,11 -15,30 -15,56 0,27 5,47 15,58 10,12 23,17 38,17 12,0 22,-4 30,-11 8,-7 14,-19 18,-35zm60 -77l141 0 0 33 -50 0 0 123 -41 0 0 -123 -50 0 0 -33zm196 48l-37 -7c4,-15 11,-26 22,-34 10,-7 26,-11 46,-11 18,0 32,2 41,7 9,4 15,10 19,17 4,7 6,19 6,37l-1 48c0,14 1,24 2,30 1,7 4,13 7,21l-41 0c-1,-3 -2,-7 -4,-12 -1,-2 -1,-4 -1,-5 -7,7 -15,12 -23,16 -8,3 -17,5 -26,5 -16,0 -29,-4 -38,-13 -9,-9 -14,-20 -14,-33 0,-9 2,-17 6,-24 4,-7 10,-12 18,-16 8,-4 18,-7 33,-10 19,-4 33,-7 40,-10l0 -4c0,-8 -2,-14 -6,-17 -4,-3 -11,-5 -22,-5 -7,0 -13,1 -17,4 -4,3 -7,8 -10,15zm55 33c-5,2 -14,4 -25,6 -11,2 -19,5 -22,7 -5,4 -8,9 -8,15 0,6 2,11 6,15 4,4 10,6 16,6 7,0 15,-2 21,-7 5,-4 8,-8 10,-14 1,-4 2,-10 2,-20l0 -8zm80 -81l38 0 0 23c5,-8 12,-14 20,-19 9,-5 18,-7 28,-7 18,0 33,7 46,21 13,14 19,34 19,59 0,26 -6,46 -19,61 -13,14 -28,22 -46,22 -9,0 -16,-2 -23,-5 -7,-3 -14,-9 -22,-18l0 78 -41 0 0 -215zm41 76c0,18 3,31 10,39 7,8 15,13 25,13 10,0 18,-4 24,-12 6,-8 10,-20 10,-38 0,-16 -3,-29 -10,-37 -7,-8 -15,-12 -24,-12 -10,0 -18,4 -25,12 -7,8 -10,19 -10,35zm234 31l41 7c-5,15 -14,27 -25,34 -11,8 -26,12 -43,12 -27,0 -47,-9 -60,-27 -10,-14 -15,-32 -15,-54 0,-26 7,-46 20,-61 13,-15 31,-22 51,-22 23,0 41,8 55,23 13,15 20,39 19,70l-103 0c0,12 4,22 10,29 6,7 14,10 24,10 6,0 12,-2 16,-5 4,-4 8,-9 10,-17zm2 -42c0,-12 -3,-21 -9,-27 -6,-6 -13,-9 -21,-9 -9,0 -16,3 -22,10 -6,7 -9,16 -9,27l61 0zm159 -65l51 0 38 109 39 -109 51 0 0 156 -35 0 0 -103 -38 103 -35 0 -36 -103 0 103 -35 0 0 -156zm221 -21l0 -38 41 0 0 38 -41 0zm0 177l0 -156 41 0 0 156 -41 0zm219 -110l-41 7c-1,-8 -4,-14 -9,-18 -5,-4 -11,-6 -19,-6 -10,0 -18,4 -25,11 -6,7 -9,19 -9,36 0,19 3,32 9,39 6,8 15,11 25,11 8,0 14,-2 19,-7 5,-4 9,-12 11,-23l41 7c-4,19 -12,33 -24,42 -12,10 -28,14 -48,14 -23,0 -41,-7 -54,-22 -14,-14 -20,-34 -20,-60 0,-26 7,-46 20,-60 14,-14 32,-22 55,-22 19,0 34,4 45,12 11,8 19,21 24,37zm13 -46l141 0 0 33 -50 0 0 123 -41 0 0 -123 -50 0 0 -33zm152 76c0,-14 3,-27 10,-40 7,-13 16,-23 29,-29 12,-7 26,-10 41,-10 24,0 43,8 58,23 15,15 23,35 23,58 0,24 -8,43 -23,59 -15,16 -34,23 -57,23 -14,0 -28,-3 -41,-10 -13,-6 -23,-16 -30,-28 -7,-12 -10,-28 -10,-46zm42 2c0,15 4,27 11,36 7,8 16,12 27,12 11,0 20,-4 27,-12 7,-8 11,-20 11,-36 0,-15 -4,-27 -11,-35 -7,-8 -16,-12 -27,-12 -11,0 -20,4 -27,12 -7,8 -11,20 -11,36z"/>
 </g>
</svg>
