<?xml version="1.0" encoding="UTF-8"?>
<!DOCTYPE svg PUBLIC "-//W3C//DTD SVG 1.1//EN" "http://www.w3.org/Graphics/SVG/1.1/DTD/svg11.dtd">
<!-- Creator: CorelDRAW X6 -->
<svg xmlns="http://www.w3.org/2000/svg" xml:space="preserve" width="64.9112mm" height="20.8643mm" version="1.1" style="shape-rendering:geometricPrecision; text-rendering:geometricPrecision; image-rendering:optimizeQuality; fill-rule:evenodd; clip-rule:evenodd"
viewBox="0 0 2167 697"
 xmlns:xlink="http://www.w3.org/1999/xlink">
 <defs>
  <style type="text/css">
   <![CDATA[
    .fil0 {fill:#1F4094}
    .fil1 {fill:#FCD635}
    .fil2 {fill:#FCD635;fill-rule:nonzero}
   ]]>
  </style>
 </defs>
 <g id="Слой_x0020_1">
  <metadata id="CorelCorpID_0Corel-Layer"/>
  <rect class="fil0" width="2167" height="629"/>
  <rect class="fil1" y="590" width="2167" height="106"/>
  <path class="fil2" d="M503 400l0 -179 -64 0 0 -36 171 0 0 36 -63 0 0 179 -44 0zm122 -156l38 0 0 23c5,-8 12,-14 20,-19 9,-5 18,-7 28,-7 18,0 33,7 46,21 13,14 19,34 19,59 0,26 -6,46 -19,61 -13,14 -28,22 -46,22 -9,0 -16,-2 -23,-5 -7,-3 -14,-9 -22,-18l0 78 -41 0 0 -215zm41 76c0,18 3,31 10,39 7,8 15,13 25,13 10,0 18,-4 24,-12 6,-8 10,-20 10,-38 0,-16 -3,-29 -10,-37 -7,-8 -15,-12 -24,-12 -10,0 -18,4 -25,12 -7,8 -10,19 -10,35zm175 -27l-37 -7c4,-15 11,-26 22,-34 10,-7 26,-11 46,-11 18,0 32,2 41,7 9,4 15,10 19,17 4,7 6,19 6,37l-1 48c0,14 1,24 2,30 1,7 4,13 7,21l-41 0c-1,-3 -2,-7 -4,-12 -1,-2 -1,-4 -1,-5 -7,7 -15,12 -23,16 -8,3 -17,5 -26,5 -16,0 -29,-4 -38,-13 -9,-9 -14,-20 -14,-33 0,-9 2,-17 6,-24 4,-7 10,-12 18,-16 8,-4 18,-7 33,-10 19,-4 33,-7 40,-10l0 -4c0,-8 -2,-14 -6,-17 -4,-3 -11,-5 -22,-5 -7,0 -13,1 -17,4 -4,3 -7,8 -10,15zm55 33c-5,2 -14,4 -25,6 -11,2 -19,5 -22,7 -5,4 -8,9 -8,15 0,6 2,11 6,15 4,4 10,6 16,6 7,0 15,-2 21,-7 5,-4 8,-8 10,-14 1,-4 2,-10 2,-20l0 -8zm79 -81l139 0 0 156 -41 0 0 -123 -56 0 0 123 -41 0 0 -156zm273 107l41 7c-5,15 -14,27 -25,34 -11,8 -26,12 -43,12 -27,0 -47,-9 -60,-27 -10,-14 -15,-32 -15,-54 0,-26 7,-46 20,-61 13,-15 31,-22 51,-22 23,0 41,8 55,23 13,15 20,39 19,70l-103 0c0,12 4,22 10,29 6,7 14,10 24,10 6,0 12,-2 16,-5 4,-4 8,-9 10,-17zm2 -42c0,-12 -3,-21 -9,-27 -6,-6 -13,-9 -21,-9 -9,0 -16,3 -22,10 -6,7 -9,16 -9,27l61 0zm73 -65l41 0 0 123 59 0 0 -123 41 0 0 123 16 0 0 75 -33 0 0 -41 -124 0 0 -156zm186 -21l0 -38 41 0 0 38 -41 0zm0 177l0 -156 41 0 0 156 -41 0zm217 -156l0 156 -41 0 0 -65 -4 0c-9,0 -15,1 -20,3 -4,2 -9,7 -14,15l-3 3 -27 44 -48 0 30 -45c8,-13 16,-20 23,-22 -12,-1 -21,-5 -28,-13 -7,-8 -11,-18 -11,-31 0,-10 2,-19 7,-26 5,-7 11,-12 19,-15 8,-3 20,-4 35,-4l81 0zm-41 26l-30 0c-11,0 -19,2 -23,5 -4,3 -7,8 -7,15 0,7 3,12 8,16 5,3 13,5 25,5l27 0 0 -40z"/>
 </g>
</svg>
