<?xml version="1.0" encoding="UTF-8"?>
<!DOCTYPE svg PUBLIC "-//W3C//DTD SVG 1.1//EN" "http://www.w3.org/Graphics/SVG/1.1/DTD/svg11.dtd">
<!-- Creator: CorelDRAW X6 -->
<svg xmlns="http://www.w3.org/2000/svg" xml:space="preserve" width="64.9112mm" height="20.8643mm" version="1.1" style="shape-rendering:geometricPrecision; text-rendering:geometricPrecision; image-rendering:optimizeQuality; fill-rule:evenodd; clip-rule:evenodd"
viewBox="0 0 2167 697"
 xmlns:xlink="http://www.w3.org/1999/xlink">
 <defs>
  <style type="text/css">
   <![CDATA[
    .fil0 {fill:#1F4094}
    .fil1 {fill:#FCD635}
    .fil2 {fill:#FCD635;fill-rule:nonzero}
   ]]>
  </style>
 </defs>
 <g id="Слой_x0020_1">
  <metadata id="CorelCorpID_0Corel-Layer"/>
  <rect class="fil0" width="2167" height="629"/>
  <rect class="fil1" y="590" width="2167" height="106"/>
  <path class="fil2" d="M499 185l146 0 0 36 -102 0 0 179 -44 0 0 -215zm195 107l-37 -7c4,-15 11,-26 22,-34 10,-7 26,-11 46,-11 18,0 32,2 41,7 9,4 15,10 19,17 4,7 6,19 6,37l-1 48c0,14 1,24 2,30 1,7 4,13 7,21l-41 0c-1,-3 -2,-7 -4,-12 -1,-2 -1,-4 -1,-5 -7,7 -15,12 -23,16 -8,3 -17,5 -26,5 -16,0 -29,-4 -38,-13 -9,-9 -14,-20 -14,-33 0,-9 2,-17 6,-24 4,-7 10,-12 18,-16 8,-4 18,-7 33,-10 19,-4 33,-7 40,-10l0 -4c0,-8 -2,-14 -6,-17 -4,-3 -11,-5 -22,-5 -7,0 -13,1 -17,4 -4,3 -7,8 -10,15zm55 33c-5,2 -14,4 -25,6 -11,2 -19,5 -22,7 -5,4 -8,9 -8,15 0,6 2,11 6,15 4,4 10,6 16,6 7,0 15,-2 21,-7 5,-4 8,-8 10,-14 1,-4 2,-10 2,-20l0 -8zm79 -81l41 0 0 57 59 0 0 -57 41 0 0 156 -41 0 0 -66 -59 0 0 66 -41 0 0 -156zm165 0l141 0 0 33 -50 0 0 123 -41 0 0 -123 -50 0 0 -33zm256 107l41 7c-5,15 -14,27 -25,34 -11,8 -26,12 -43,12 -27,0 -47,-9 -60,-27 -10,-14 -15,-32 -15,-54 0,-26 7,-46 20,-61 13,-15 31,-22 51,-22 23,0 41,8 55,23 13,15 20,39 19,70l-103 0c0,12 4,22 10,29 6,7 14,10 24,10 6,0 12,-2 16,-5 4,-4 8,-9 10,-17zm2 -42c0,-12 -3,-21 -9,-27 -6,-6 -13,-9 -21,-9 -9,0 -16,3 -22,10 -6,7 -9,16 -9,27l61 0zm86 -65l138 0 0 156 -41 0 0 -123 -56 0 0 70c0,18 -2,30 -6,38 -4,7 -9,12 -14,14 -5,2 -13,3 -24,3 -7,0 -15,-1 -26,-3l0 -30c1,0 3,0 7,0 4,0 8,0 10,0 6,0 9,-2 10,-6 1,-4 2,-14 2,-31l0 -90zm181 0l41 0 0 65 41 0c16,0 29,1 37,4 9,2 16,7 22,15 6,8 9,17 9,27 0,15 -5,26 -15,34 -10,8 -26,11 -46,11l-88 0 0 -156zm41 130l39 0c12,0 20,-2 23,-6 3,-4 5,-9 5,-14 0,-7 -3,-13 -9,-15 -6,-3 -16,-4 -31,-4l-27 0 0 39z"/>
 </g>
</svg>
